<svg width="431" height="70" viewBox="0 0 431 70" fill="none" xmlns="http://www.w3.org/2000/svg">
<path d="M252.493 56.6014L256.446 35.7797C257.118 32.2857 257.489 29.3925 257.798 27.0843H260.248L259.458 33.0999H259.584C262.161 28.8075 265.845 26.4677 269.86 26.4677C272.683 26.4677 276.43 28.3095 276.43 33.8984C276.39 35.4276 276.205 36.9497 275.876 38.4437L272.437 56.5619H269.797L273.236 38.4437C273.511 37.0265 273.657 35.5871 273.671 34.1434C273.671 31.0763 272.438 28.8629 268.817 28.8629C264.865 28.8629 259.331 33.7798 258.011 40.9022L255.126 56.5619L252.493 56.6014Z" fill="white"/>
<path d="M296.018 54.9415C293.603 56.4345 290.81 57.2027 287.971 57.1549C281.093 57.1549 278.635 51.7479 278.635 46.0879C278.635 37.6138 284.595 26.4993 293.069 26.4993C297.915 26.4993 299.947 29.6613 299.947 32.9498C299.947 40.507 291.346 42.5307 281.71 42.4358C281.307 44.8627 281.39 47.3456 281.955 49.74C282.998 53.1233 285.267 54.7755 288.398 54.7755C290.82 54.7789 293.191 54.0757 295.22 52.7518L296.018 54.9415ZM297.18 33.0842C297.18 30.3174 295.275 28.8471 292.579 28.8471C288.034 28.8471 283.884 33.8194 282.137 40.2066C289.749 40.2066 297.156 38.9181 297.156 33.1395L297.18 33.0842Z" fill="white"/>
<path d="M304.311 27.1161L305.662 46.0881C305.971 49.59 306.034 51.1236 306.034 52.9654H306.152C306.706 51.6216 307.631 49.3449 309.038 46.5861L318.927 27.1161H321.441L323.472 46.3964C323.796 48.5712 323.959 50.7667 323.962 52.9654H324.144C324.824 51.1868 325.559 49.1631 326.666 46.7047L335.812 27.1161H338.634L324.516 56.5938H322.144L320.002 37.0685C319.703 34.8525 319.579 32.6164 319.63 30.3809H319.512C318.524 32.4678 317.67 34.6812 316.437 37.0685L306.563 56.6017H304.105L301.733 27.1161H304.311Z" fill="white"/>
<path d="M353.724 27.1152L356.657 44.8302C357.266 48.1266 357.574 50.1424 357.882 52.8301H358.064C358.918 50.6958 359.898 48.4349 361.305 45.4389L369.669 27.1152H372.546L361.606 50.5139C358.918 56.2529 356.23 61.4465 352.12 65.2962C350.229 67.2796 347.881 68.7696 345.282 69.6361L344.42 67.312C346.351 66.5687 348.147 65.5169 349.74 64.1974C352.199 62.0415 354.213 59.4261 355.669 56.498C355.903 56.048 355.967 55.5291 355.851 55.0356L351.037 27.1152H353.724Z" fill="white"/>
<path d="M393.581 37.8025C393.581 45.3202 388.633 57.0511 379.099 57.0511C372.775 57.0511 369.756 51.7311 369.756 45.6838C369.756 37.1306 375.289 26.4984 384.23 26.4984C391.257 26.4984 393.581 32.4904 393.581 37.8025ZM372.499 45.4387C372.499 50.569 374.87 54.7271 379.526 54.7271C386.127 54.7271 390.83 44.83 390.83 37.8025C390.83 33.9528 389.36 28.8224 383.984 28.8224C377.147 28.8224 372.499 37.929 372.499 45.4387Z" fill="white"/>
<path d="M394.561 56.4353L398.292 36.6728C398.964 32.9496 399.447 29.6453 399.692 27.0841H402.063C401.881 28.9734 401.636 30.9338 401.273 33.4081H401.399C403.17 29.503 406.142 26.4438 409.771 26.4438C410.138 26.4317 410.506 26.4528 410.869 26.507L410.316 29.3211C409.999 29.2357 409.672 29.1931 409.344 29.1947C405.494 29.1947 401.217 34.9969 399.992 41.479L397.186 56.3799L394.561 56.4353Z" fill="white"/>
<path d="M407.786 56.4351L415.968 13.3687H418.6L413.407 40.7357H413.525C414.336 39.8175 415.194 38.9415 416.094 38.1113L427.209 27.1155H430.568L418.355 39.0836L426.663 56.4746H423.849L416.339 40.7753L412.79 44.0717L410.419 56.4746L407.786 56.4351Z" fill="white"/>
<path d="M85.7927 38.8617C83.6821 37.7155 82.6307 36.7511 82.6307 35.4231C82.6307 33.7314 84.1406 32.6484 86.4883 32.6484C88.2748 32.6914 90.0359 33.0807 91.674 33.7947L93.6028 27.8817C93.6028 27.8817 91.8321 26.4983 86.6069 26.4983C79.3423 26.4983 74.3068 30.6564 74.3068 36.5061C74.3068 39.8261 76.6783 42.3557 79.7928 44.166C82.3303 45.6126 83.2315 46.6323 83.2315 48.1185C83.2315 49.6046 81.9667 50.9563 79.611 50.9563C77.237 50.8592 74.9134 50.2412 72.8048 49.1461L70.7495 55.0512C73.2239 56.4816 76.0421 57.2087 78.8996 57.1539C86.3698 57.1539 91.7373 53.4702 91.7373 46.8379C91.7373 43.2806 89.0259 40.751 85.769 38.8855L85.7927 38.8617Z" fill="white"/>
<path d="M115.579 26.4359C111.903 26.4359 109.01 28.1908 106.773 30.839L106.654 30.7836L109.816 14.0804H101.532L93.4528 56.5855H101.769L104.544 42.0562C105.627 36.5701 108.496 33.1947 111.113 33.1947C112.986 33.1947 113.705 34.4595 113.705 36.2697C113.704 37.5035 113.585 38.7343 113.35 39.9455L110.188 56.546H118.512L121.761 39.3605C122.123 37.5744 122.327 35.7597 122.369 33.9377C122.369 29.2343 119.895 26.3964 115.555 26.3964L115.579 26.4359Z" fill="white"/>
<path d="M137.104 50.8306C134.266 50.8306 133.065 48.4196 133.065 45.3999C133.065 40.6569 135.539 32.8626 140.061 32.8626C143.009 32.8626 144.013 35.3922 144.013 37.8664C144.013 42.9889 141.547 50.8306 137.144 50.8306H137.104ZM141.199 26.4675C131.191 26.4675 124.598 35.5108 124.598 45.5817C124.598 52.0322 128.551 57.2179 136.061 57.2179C145.886 57.2179 152.519 48.4196 152.519 38.1036C152.519 32.1354 149.017 26.4675 141.238 26.4675H141.199Z" fill="white"/>
<path d="M165.799 50.9173C164.548 50.9353 163.332 50.5065 162.368 49.7079L163.752 41.9293C164.716 36.7516 167.428 33.3129 170.329 33.3129C172.858 33.3129 173.641 35.6844 173.641 37.8899C173.641 43.2574 170.479 50.9173 165.799 50.9173ZM173.759 26.4119C168.147 26.4119 164.961 31.3604 164.961 31.3604H164.835L165.317 26.8941H157.949C157.586 29.9138 156.922 34.4907 156.258 37.961L150.471 68.411H158.795L161.088 56.1109H161.262C162.767 56.8926 164.452 57.266 166.147 57.1939C175.918 57.1939 182.305 47.1862 182.305 37.0599C182.305 31.4474 179.838 26.4435 173.744 26.4435L173.759 26.4119Z" fill="white"/>
<path d="M194.202 14.4674C193.572 14.4673 192.949 14.5926 192.368 14.8359C191.788 15.0792 191.261 15.4356 190.82 15.8844C190.378 16.3332 190.031 16.8655 189.797 17.4501C189.563 18.0347 189.448 18.6599 189.459 19.2894C189.459 21.7637 191.04 23.4554 193.411 23.4554H193.53C194.172 23.4748 194.811 23.3635 195.409 23.1283C196.007 22.8932 196.551 22.539 197.008 22.0874C197.464 21.6357 197.825 21.096 198.067 20.5009C198.309 19.9058 198.427 19.2677 198.415 18.6254C198.445 18.0716 198.358 17.5177 198.159 16.9998C197.961 16.4819 197.655 16.0116 197.263 15.6194C196.871 15.2272 196.401 14.922 195.883 14.7235C195.365 14.525 194.811 14.4378 194.257 14.4674H194.202Z" fill="white"/>
<path d="M182.566 56.5853H190.882L196.55 27.0997H188.17L182.566 56.5853Z" fill="white"/>
<path d="M217.711 27.0442H211.925L212.225 25.653C212.707 22.823 214.399 20.2855 217.174 20.2855C218.073 20.2877 218.967 20.4318 219.822 20.7124L221.45 14.1986C220.01 13.6463 218.469 13.4013 216.928 13.4793C213.973 13.3981 211.087 14.3798 208.794 16.2461C205.956 18.6175 204.628 22.159 203.964 25.653L203.727 27.0442H199.846L198.636 33.3129H202.494L198.099 56.5852H206.415L210.818 33.3129H216.549L217.687 27.0442H217.711Z" fill="white"/>
<path d="M237.734 27.1151C237.734 27.1151 232.533 40.2216 230.193 47.3756H230.074C229.916 45.0753 228.027 27.1151 228.027 27.1151H219.284L224.288 54.1897C224.352 54.4207 224.369 54.6622 224.338 54.8999C224.306 55.1375 224.228 55.3665 224.106 55.5731C223.024 57.5811 221.473 59.2978 219.584 60.5769C218.129 61.597 216.531 62.3961 214.841 62.9484L217.134 69.9997C220.18 69.1893 222.978 67.6357 225.276 65.478C229.07 61.9208 232.564 56.4347 236.185 48.9566L246.414 27.1151H237.734Z" fill="white"/>
<path d="M34.6319 10.278C34.6423 8.23026 34.3028 6.19576 33.6279 4.26236C36.1338 4.74456 37.367 7.58242 37.8887 9.27409L34.6319 10.278ZM21.5017 32.4831C21.723 36.0245 30.9877 36.7992 31.5568 45.0836C31.9679 51.5973 28.0944 56.0558 22.5214 56.4115C20.6413 56.5788 18.7469 56.3516 16.9596 55.7445C15.1723 55.1374 13.5315 54.1637 12.1422 52.8859L13.5651 46.8544C13.5651 46.8544 17.2725 49.6528 20.2369 49.463C20.5927 49.4554 20.9433 49.3754 21.2673 49.228C21.5913 49.0806 21.8819 48.8689 22.1215 48.6057C22.3611 48.3424 22.5446 48.0332 22.6609 47.6968C22.7772 47.3604 22.8239 47.0039 22.7981 46.6489C22.5056 42.0324 14.8931 42.309 14.4504 34.7281C14.0473 28.3409 18.2369 21.8746 27.4858 21.2897C31.0509 21.0604 32.8691 21.9695 32.8691 21.9695L30.7584 29.8745C29.1276 29.1986 27.3678 28.8909 25.6044 28.9733C21.5017 29.2342 21.4622 31.8191 21.5017 32.4673V32.4831ZM27.9285 2.23868C28.6307 2.19979 29.3274 2.38225 29.9205 2.76039C28.9575 3.2774 28.0888 3.95357 27.3514 4.76032C25.1165 7.36026 23.6157 10.5093 23.0036 13.8827L17.2409 15.6613C18.3792 10.3492 22.8297 2.38886 27.9285 2.22286V2.23868ZM32.4343 10.9342L25.4225 13.108C26.0461 10.5715 27.2595 8.2179 28.964 6.2386C29.6238 5.49902 30.4318 4.90648 31.3355 4.4995C32.1461 6.54422 32.5178 8.73653 32.4264 10.9342H32.4343ZM42.0388 7.96188L39.9993 8.59427C39.7461 7.77534 39.418 6.98148 39.0191 6.22277C37.5725 3.46394 35.454 2.00149 32.9007 1.99358C32.7268 1.99358 32.5529 1.99358 32.371 1.99358L32.1418 1.73275C31.6042 1.14706 30.9428 0.688481 30.2058 0.390391C29.4688 0.0923011 28.6746 -0.0378015 27.881 0.00947149C24.5767 0.104331 21.2882 2.49164 18.6164 6.72871C16.7462 9.67479 15.4732 12.9596 14.8694 16.3965L8.3478 18.4202C6.42689 19.0288 6.37155 19.0842 6.11859 20.8865C5.92887 22.2541 0.917099 61.0122 0.917099 61.0122L42.5368 68.2215V7.89863C42.3684 7.91157 42.2017 7.94068 42.0388 7.98557V7.96188Z" fill="white"/>
<path d="M43.8727 68.0236L61.1292 63.7391C61.1292 63.7391 53.6985 13.5187 53.6511 13.1472C53.6273 13.0024 53.5562 12.8696 53.4489 12.7694C53.3417 12.6693 53.2043 12.6076 53.0582 12.5938C52.8053 12.5938 47.9516 12.499 47.9516 12.499L43.8727 8.54648V68.0077V68.0236Z" fill="white"/>
</svg>
